<svg xmlns="http://www.w3.org/2000/svg" viewBox="0 0 1807 630" role="img" aria-label="SokSak logo">
  <title>SokSak logo</title>
  <path fill="var(--logo-color, currentColor)" fill-rule="evenodd" d="
    M 995 20 L 987 21 L 966 29 L 937 44 L 899 70 L 867 97 L 827 137 L 796 172 L 764 214 L 740 253 L 737 252 L 737 248 L 738 247 L 739 236 L 740 235 L 747 196 L 749 192 L 753 175 L 694 175 L 693 176 L 664 176 L 663 177 L 627 178 L 627 182 L 631 188 L 636 208 L 636 215 L 637 216 L 635 250 L 634 251 L 631 296 L 630 297 L 630 309 L 629 310 L 629 321 L 628 322 L 628 332 L 627 333 L 627 349 L 626 350 L 626 361 L 625 362 L 625 416 L 626 417 L 626 424 L 627 425 L 629 442 L 635 465 L 644 488 L 655 510 L 668 531 L 685 552 L 704 571 L 734 594 L 761 608 L 766 609 L 766 605 L 755 574 L 751 557 L 748 550 L 746 539 L 744 535 L 736 500 L 736 495 L 732 476 L 732 470 L 731 469 L 731 463 L 730 462 L 729 443 L 728 442 L 728 428 L 727 427 L 727 360 L 728 359 L 728 348 L 729 347 L 732 348 L 752 396 L 754 398 L 768 427 L 776 439 L 785 456 L 793 467 L 795 468 L 838 467 L 839 466 L 867 465 L 868 464 L 878 464 L 879 463 L 889 463 L 890 462 L 927 459 L 927 456 L 899 425 L 861 376 L 822 320 L 818 312 L 812 304 L 812 301 L 822 283 L 839 258 L 868 222 L 895 195 L 907 185 L 928 171 L 952 161 L 956 128 L 957 127 L 960 108 L 967 86 L 967 83 L 969 80 L 976 59 L 982 48 L 988 33 L 995 22 Z
    M 1213 185 L 1211 185 L 1210 184 L 1205 184 L 1204 183 L 1198 183 L 1197 182 L 1191 182 L 1190 181 L 1184 181 L 1183 180 L 1167 179 L 1166 178 L 1157 178 L 1156 177 L 1134 176 L 1133 175 L 1122 175 L 1121 174 L 1108 174 L 1107 173 L 1092 173 L 1091 172 L 1071 172 L 1070 171 L 1016 171 L 1015 172 L 984 173 L 983 174 L 974 174 L 973 175 L 960 176 L 959 177 L 955 177 L 954 178 L 951 178 L 945 181 L 943 181 L 941 183 L 932 188 L 922 197 L 921 197 L 898 220 L 898 221 L 881 241 L 868 261 L 866 265 L 866 267 L 880 277 L 883 278 L 900 289 L 905 291 L 912 296 L 923 301 L 930 306 L 943 312 L 945 314 L 953 318 L 955 318 L 957 320 L 985 334 L 987 334 L 1017 349 L 1019 349 L 1024 352 L 1026 352 L 1035 357 L 1035 359 L 1034 360 L 1032 360 L 1031 359 L 1015 359 L 1014 358 L 1002 358 L 1001 357 L 990 357 L 989 356 L 980 356 L 979 355 L 960 354 L 959 353 L 952 353 L 951 352 L 943 352 L 942 351 L 934 351 L 933 350 L 919 349 L 918 348 L 906 347 L 905 346 L 899 346 L 898 345 L 892 345 L 891 344 L 885 344 L 884 343 L 872 342 L 871 341 L 867 341 L 867 345 L 873 354 L 879 366 L 886 376 L 887 379 L 890 382 L 896 393 L 911 414 L 915 418 L 918 423 L 926 431 L 926 432 L 946 452 L 951 455 L 966 455 L 967 454 L 976 454 L 977 453 L 993 452 L 994 451 L 1003 451 L 1004 450 L 1011 450 L 1012 449 L 1019 449 L 1020 448 L 1036 447 L 1037 446 L 1043 446 L 1044 445 L 1064 443 L 1065 442 L 1070 442 L 1071 441 L 1076 441 L 1077 440 L 1081 440 L 1082 439 L 1087 439 L 1088 438 L 1092 438 L 1097 436 L 1101 436 L 1102 435 L 1106 435 L 1111 433 L 1115 433 L 1120 431 L 1124 431 L 1125 430 L 1136 428 L 1137 427 L 1148 424 L 1155 420 L 1161 414 L 1164 409 L 1165 404 L 1167 401 L 1167 398 L 1169 395 L 1169 392 L 1172 384 L 1172 381 L 1173 380 L 1173 377 L 1175 372 L 1175 368 L 1177 363 L 1179 349 L 1180 348 L 1180 336 L 1179 335 L 1178 330 L 1175 325 L 1166 316 L 1159 311 L 1131 296 L 1129 296 L 1120 291 L 1118 291 L 1115 289 L 1108 287 L 1103 284 L 1101 284 L 1088 278 L 1080 276 L 1077 274 L 1066 271 L 1063 269 L 1061 269 L 1042 262 L 1039 262 L 1029 258 L 1022 257 L 1021 256 L 1021 254 L 1022 253 L 1036 253 L 1037 252 L 1089 253 L 1090 254 L 1117 255 L 1118 256 L 1127 256 L 1128 257 L 1147 258 L 1148 259 L 1156 259 L 1157 260 L 1165 260 L 1166 261 L 1175 261 L 1176 262 L 1184 262 L 1185 263 L 1194 263 L 1196 259 L 1197 252 L 1198 251 L 1200 241 L 1201 240 L 1201 236 L 1202 235 L 1203 229 L 1206 222 L 1206 219 L 1209 212 L 1210 205 L 1212 201 L 1212 198 L 1213 197 L 1213 194 L 1215 189 L 1215 187 Z
    M 1786 73 L 1781 73 L 1780 74 L 1771 75 L 1760 79 L 1753 80 L 1744 84 L 1742 84 L 1737 87 L 1735 87 L 1724 93 L 1722 93 L 1712 98 L 1697 108 L 1689 112 L 1665 130 L 1652 142 L 1644 148 L 1609 184 L 1609 185 L 1595 200 L 1595 201 L 1589 207 L 1585 213 L 1571 229 L 1539 272 L 1536 271 L 1536 263 L 1537 262 L 1538 244 L 1539 243 L 1539 237 L 1540 236 L 1540 230 L 1541 229 L 1541 222 L 1542 221 L 1542 217 L 1541 216 L 1524 215 L 1523 214 L 1516 214 L 1515 213 L 1508 213 L 1507 212 L 1499 212 L 1498 211 L 1490 211 L 1489 210 L 1478 210 L 1477 209 L 1469 209 L 1468 208 L 1460 208 L 1459 207 L 1450 207 L 1449 206 L 1436 206 L 1436 213 L 1437 214 L 1437 220 L 1438 221 L 1438 230 L 1439 231 L 1440 266 L 1441 267 L 1441 296 L 1442 297 L 1442 400 L 1443 401 L 1453 401 L 1454 400 L 1464 400 L 1465 399 L 1497 397 L 1498 396 L 1507 396 L 1508 395 L 1517 395 L 1518 394 L 1527 394 L 1528 393 L 1537 393 L 1540 392 L 1539 374 L 1538 373 L 1538 363 L 1537 362 L 1537 351 L 1536 350 L 1536 344 L 1539 343 L 1550 355 L 1559 367 L 1567 375 L 1572 382 L 1589 400 L 1589 401 L 1629 441 L 1630 441 L 1644 454 L 1669 474 L 1702 496 L 1729 510 L 1731 510 L 1738 514 L 1740 514 L 1743 516 L 1761 522 L 1764 522 L 1776 526 L 1780 526 L 1780 524 L 1770 509 L 1764 502 L 1759 493 L 1754 487 L 1753 484 L 1750 481 L 1749 478 L 1745 473 L 1744 470 L 1733 453 L 1728 442 L 1726 440 L 1722 431 L 1720 429 L 1709 407 L 1709 405 L 1694 375 L 1694 373 L 1691 368 L 1689 361 L 1682 348 L 1673 339 L 1670 338 L 1668 336 L 1644 325 L 1639 324 L 1636 322 L 1612 314 L 1611 313 L 1611 310 L 1663 284 L 1669 280 L 1680 268 L 1687 256 L 1687 254 L 1708 212 L 1711 203 L 1714 199 L 1714 197 L 1718 190 L 1718 188 L 1721 184 L 1721 182 L 1723 180 L 1723 178 L 1742 141 L 1744 139 L 1747 132 L 1759 114 L 1763 106 L 1766 103 L 1770 96 L 1774 92 L 1781 81 L 1785 77 Z
    M 375 454 L 375 452 L 369 445 L 363 436 L 357 424 L 357 422 L 354 415 L 354 412 L 352 408 L 352 404 L 351 403 L 351 399 L 350 398 L 350 390 L 349 389 L 349 358 L 350 357 L 350 349 L 351 348 L 351 331 L 348 323 L 344 319 L 344 318 L 337 312 L 328 307 L 326 307 L 314 301 L 309 300 L 306 298 L 304 298 L 297 295 L 294 295 L 287 292 L 284 292 L 283 291 L 280 291 L 279 290 L 276 290 L 268 287 L 264 287 L 263 286 L 260 286 L 259 285 L 256 285 L 251 283 L 247 283 L 242 281 L 237 281 L 236 280 L 232 280 L 231 279 L 227 279 L 226 278 L 221 278 L 220 277 L 214 277 L 213 276 L 193 274 L 192 273 L 192 271 L 193 270 L 199 270 L 200 269 L 208 269 L 209 268 L 217 268 L 218 267 L 228 267 L 229 266 L 243 266 L 244 265 L 321 265 L 322 266 L 337 266 L 338 267 L 359 268 L 360 267 L 361 258 L 362 257 L 365 242 L 367 238 L 368 231 L 369 230 L 375 210 L 377 207 L 377 205 L 388 183 L 388 179 L 369 179 L 368 180 L 329 180 L 328 181 L 310 181 L 309 182 L 294 182 L 293 183 L 282 183 L 281 184 L 259 185 L 258 186 L 249 186 L 248 187 L 232 188 L 231 189 L 224 189 L 223 190 L 217 190 L 216 191 L 210 191 L 209 192 L 189 194 L 188 195 L 171 197 L 170 198 L 160 199 L 159 200 L 155 200 L 154 201 L 149 201 L 148 202 L 139 203 L 134 205 L 130 205 L 129 206 L 126 206 L 125 207 L 122 207 L 121 208 L 118 208 L 117 209 L 102 212 L 98 214 L 95 214 L 91 216 L 88 216 L 87 217 L 70 222 L 67 224 L 57 227 L 50 231 L 48 231 L 42 234 L 40 236 L 37 237 L 28 243 L 21 250 L 21 252 L 20 253 L 20 258 L 21 259 L 22 264 L 26 272 L 39 290 L 57 307 L 71 317 L 80 321 L 82 323 L 86 324 L 97 330 L 99 330 L 106 333 L 117 335 L 121 337 L 129 338 L 134 340 L 138 340 L 143 342 L 153 343 L 158 345 L 168 346 L 173 348 L 178 348 L 179 349 L 184 349 L 185 350 L 189 350 L 190 351 L 195 351 L 196 352 L 205 353 L 206 354 L 217 356 L 221 358 L 224 358 L 228 360 L 231 360 L 235 362 L 238 362 L 245 365 L 245 367 L 244 368 L 208 368 L 207 367 L 194 367 L 193 368 L 167 368 L 166 369 L 157 369 L 156 370 L 147 370 L 146 371 L 131 372 L 130 373 L 125 373 L 124 374 L 120 374 L 119 375 L 115 375 L 113 376 L 113 378 L 126 390 L 156 410 L 174 419 L 176 419 L 193 427 L 195 427 L 199 429 L 202 429 L 206 431 L 209 431 L 219 435 L 226 436 L 230 438 L 238 439 L 243 441 L 247 441 L 252 443 L 262 444 L 263 445 L 268 445 L 269 446 L 274 446 L 275 447 L 289 448 L 290 449 L 306 450 L 307 451 L 316 451 L 317 452 L 327 452 L 328 453 L 339 453 L 340 454 L 361 454 L 362 455 L 374 455 Z
    M 607 188 L 606 188 L 601 184 L 595 181 L 593 181 L 592 180 L 589 180 L 588 179 L 585 179 L 584 178 L 579 178 L 578 177 L 571 177 L 570 176 L 561 176 L 560 175 L 546 175 L 545 174 L 513 174 L 512 175 L 493 175 L 492 176 L 479 176 L 478 177 L 468 177 L 467 178 L 459 178 L 458 179 L 453 179 L 452 180 L 447 180 L 446 181 L 442 181 L 441 182 L 438 182 L 437 183 L 430 184 L 429 185 L 427 185 L 426 186 L 421 187 L 411 192 L 405 197 L 404 197 L 399 202 L 399 203 L 391 214 L 391 216 L 386 226 L 386 228 L 385 229 L 385 232 L 384 233 L 384 235 L 383 236 L 383 239 L 382 240 L 382 244 L 381 245 L 381 249 L 380 250 L 380 254 L 379 255 L 379 259 L 378 260 L 378 264 L 377 265 L 377 269 L 376 270 L 376 274 L 375 275 L 375 280 L 374 281 L 374 286 L 373 287 L 373 292 L 372 293 L 372 300 L 371 301 L 371 306 L 370 307 L 370 313 L 369 314 L 369 322 L 368 323 L 368 329 L 367 330 L 367 339 L 366 340 L 366 350 L 365 351 L 365 366 L 364 367 L 364 383 L 365 384 L 365 397 L 366 398 L 366 403 L 367 404 L 367 407 L 368 408 L 369 413 L 372 419 L 379 428 L 380 428 L 384 432 L 394 437 L 396 437 L 397 438 L 399 438 L 403 440 L 410 441 L 411 442 L 416 442 L 417 443 L 423 443 L 424 444 L 436 444 L 437 445 L 454 445 L 455 446 L 494 446 L 495 445 L 515 445 L 516 444 L 528 444 L 529 443 L 537 443 L 538 442 L 544 442 L 545 441 L 550 441 L 551 440 L 555 440 L 556 439 L 563 438 L 564 437 L 569 436 L 579 431 L 581 429 L 582 429 L 589 422 L 589 421 L 591 419 L 591 418 L 594 414 L 594 412 L 595 411 L 595 409 L 597 405 L 597 401 L 598 400 L 598 394 L 599 393 L 599 385 L 600 384 L 600 378 L 601 377 L 601 367 L 602 366 L 602 356 L 603 355 L 603 347 L 604 346 L 604 337 L 605 336 L 605 328 L 606 327 L 606 320 L 607 319 L 607 309 L 608 308 L 608 301 L 609 300 L 609 291 L 610 290 L 610 280 L 611 279 L 611 272 L 612 271 L 612 261 L 613 260 L 613 251 L 614 250 L 614 241 L 615 240 L 615 231 L 616 230 L 616 206 L 615 205 L 615 201 L 613 198 L 613 196 L 612 194 Z
    M 1238 187 L 1238 189 L 1237 190 L 1237 192 L 1236 193 L 1236 195 L 1234 199 L 1234 202 L 1232 206 L 1231 213 L 1229 217 L 1228 224 L 1226 228 L 1226 231 L 1225 232 L 1225 235 L 1224 236 L 1224 239 L 1223 240 L 1223 243 L 1222 244 L 1221 251 L 1219 255 L 1219 258 L 1218 259 L 1218 262 L 1217 263 L 1217 266 L 1216 267 L 1215 274 L 1213 278 L 1213 281 L 1212 282 L 1212 285 L 1211 286 L 1210 293 L 1208 297 L 1208 300 L 1207 301 L 1207 304 L 1206 305 L 1206 308 L 1205 309 L 1205 312 L 1204 313 L 1204 316 L 1203 317 L 1203 320 L 1202 321 L 1202 324 L 1201 325 L 1201 328 L 1200 329 L 1200 332 L 1199 333 L 1198 340 L 1196 344 L 1196 347 L 1195 348 L 1194 355 L 1192 359 L 1191 366 L 1189 370 L 1188 377 L 1186 381 L 1185 388 L 1183 392 L 1182 399 L 1181 400 L 1181 402 L 1180 403 L 1180 406 L 1178 410 L 1178 413 L 1176 417 L 1176 420 L 1175 421 L 1175 424 L 1173 428 L 1173 431 L 1179 431 L 1180 430 L 1190 430 L 1191 429 L 1200 429 L 1201 428 L 1209 428 L 1210 427 L 1218 427 L 1219 426 L 1225 426 L 1226 425 L 1233 425 L 1234 424 L 1241 424 L 1242 423 L 1249 423 L 1250 422 L 1257 422 L 1258 421 L 1265 421 L 1266 420 L 1271 420 L 1275 417 L 1275 415 L 1276 414 L 1276 411 L 1277 410 L 1277 407 L 1278 406 L 1278 403 L 1279 402 L 1279 399 L 1280 398 L 1280 395 L 1281 394 L 1281 391 L 1283 387 L 1285 386 L 1291 386 L 1292 385 L 1300 385 L 1301 384 L 1308 384 L 1309 383 L 1318 383 L 1319 382 L 1325 382 L 1326 381 L 1333 381 L 1334 380 L 1342 380 L 1343 381 L 1343 387 L 1344 388 L 1344 395 L 1345 396 L 1345 401 L 1346 402 L 1346 407 L 1347 408 L 1347 411 L 1349 412 L 1353 412 L 1354 411 L 1362 411 L 1363 410 L 1371 410 L 1372 409 L 1380 409 L 1381 408 L 1389 408 L 1390 407 L 1398 407 L 1399 406 L 1406 406 L 1407 405 L 1415 405 L 1416 404 L 1424 404 L 1425 403 L 1432 403 L 1434 402 L 1434 394 L 1433 393 L 1433 386 L 1432 385 L 1432 379 L 1431 378 L 1431 373 L 1430 372 L 1430 367 L 1429 366 L 1429 361 L 1428 360 L 1428 355 L 1427 354 L 1427 350 L 1426 349 L 1426 346 L 1425 345 L 1425 341 L 1424 340 L 1424 337 L 1423 336 L 1423 333 L 1422 332 L 1422 328 L 1421 327 L 1421 324 L 1420 323 L 1420 319 L 1419 318 L 1419 315 L 1417 311 L 1417 308 L 1416 307 L 1416 304 L 1415 303 L 1415 300 L 1414 299 L 1414 296 L 1413 295 L 1413 292 L 1412 291 L 1411 284 L 1410 283 L 1410 281 L 1409 280 L 1409 278 L 1408 277 L 1408 275 L 1406 271 L 1406 268 L 1405 267 L 1405 265 L 1402 259 L 1402 256 L 1401 255 L 1401 253 L 1400 252 L 1400 250 L 1399 249 L 1399 247 L 1397 243 L 1397 240 L 1396 239 L 1396 237 L 1395 236 L 1394 231 L 1392 228 L 1392 226 L 1390 223 L 1389 218 L 1387 215 L 1387 213 L 1382 203 L 1378 200 L 1376 200 L 1375 199 L 1369 199 L 1368 198 L 1361 198 L 1360 197 L 1353 197 L 1352 196 L 1345 196 L 1344 195 L 1336 195 L 1335 194 L 1326 194 L 1325 193 L 1315 193 L 1314 192 L 1305 192 L 1304 191 L 1295 191 L 1294 190 L 1284 190 L 1283 189 L 1274 189 L 1273 188 L 1263 188 L 1262 187 L 1252 187 L 1251 186 L 1240 186 Z
    M 509 228 L 510 229 L 512 229 L 516 231 L 519 235 L 519 237 L 520 238 L 520 252 L 519 253 L 519 260 L 518 261 L 518 267 L 517 268 L 517 275 L 516 276 L 516 282 L 515 283 L 515 291 L 514 292 L 514 298 L 513 299 L 513 305 L 512 306 L 512 313 L 511 314 L 511 321 L 510 322 L 510 330 L 509 331 L 509 336 L 508 337 L 508 343 L 507 344 L 507 349 L 506 350 L 506 357 L 505 358 L 505 362 L 504 363 L 504 366 L 502 370 L 495 376 L 492 376 L 491 377 L 470 377 L 469 376 L 467 376 L 465 375 L 461 371 L 459 367 L 459 347 L 460 346 L 460 339 L 461 338 L 461 330 L 462 329 L 462 322 L 463 321 L 463 315 L 464 314 L 464 308 L 465 307 L 465 302 L 466 301 L 466 294 L 467 293 L 467 287 L 468 286 L 468 281 L 469 280 L 469 274 L 470 273 L 470 267 L 471 266 L 471 261 L 472 260 L 472 254 L 473 253 L 473 248 L 474 247 L 474 244 L 475 243 L 475 241 L 477 237 L 482 232 L 488 229 L 492 229 L 493 228 Z
    M 1315 254 L 1316 255 L 1316 257 L 1317 258 L 1317 260 L 1319 264 L 1319 267 L 1321 271 L 1321 274 L 1323 278 L 1324 285 L 1326 289 L 1326 292 L 1327 293 L 1328 300 L 1329 301 L 1329 303 L 1331 307 L 1331 310 L 1332 311 L 1333 318 L 1335 322 L 1335 325 L 1334 326 L 1326 326 L 1325 327 L 1317 327 L 1316 328 L 1307 328 L 1306 329 L 1297 329 L 1296 328 L 1296 324 L 1297 323 L 1297 319 L 1298 318 L 1298 315 L 1299 314 L 1299 311 L 1300 310 L 1300 306 L 1301 305 L 1302 298 L 1303 297 L 1303 295 L 1304 294 L 1304 291 L 1305 290 L 1305 286 L 1306 285 L 1306 282 L 1307 281 L 1307 277 L 1308 276 L 1308 272 L 1309 271 L 1309 268 L 1310 267 L 1310 264 L 1311 263 L 1311 259 L 1312 258 L 1312 255 L 1313 254 Z
  "/>
</svg>
